<?xml version="1.0" encoding="utf-8"?>
<!-- Generator: Adobe Illustrator 23.0.3, SVG Export Plug-In . SVG Version: 6.00 Build 0)  -->
<svg version="1.1" id="Layer_1" xmlns="http://www.w3.org/2000/svg" xmlns:xlink="http://www.w3.org/1999/xlink" x="0px" y="0px"
	 viewBox="0 0 17.8 22" style="enable-background:new 0 0 17.8 22;" xml:space="preserve">
<style type="text/css">
	.st0{fill:#3f51b5;}
</style>

<g>
	<path d="M15.3,2.6h-3.4C11.7,1.1,10.4,0,8.9,0s-2.8,1.1-3,2.6H2.5C1.1,2.6,0,3.8,0,5.2v0.1c0,1,0.6,2,1.6,2.4v11.8
		c0,1.4,1.1,2.5,2.5,2.5h9.5c1.4,0,2.5-1.1,2.5-2.5V7.7c1-0.4,1.6-1.3,1.6-2.4V5.2C17.8,3.8,16.7,2.6,15.3,2.6z M8.9,1.3
		c0.8,0,1.5,0.6,1.7,1.3H7.2C7.4,1.8,8.1,1.3,8.9,1.3z M14.9,19.5c0,0.7-0.6,1.3-1.3,1.3H4.1c-0.7,0-1.3-0.6-1.3-1.3V7.9h12.1V19.5z
		 M16.5,5.3c0,0.7-0.6,1.3-1.3,1.3H2.5C1.8,6.6,1.3,6,1.3,5.3V5.2c0-0.7,0.6-1.3,1.3-1.3h12.7c0.7,0,1.3,0.6,1.3,1.3V5.3z"/>
</g>
<g>
	<path class="st0" d="M5.7,19c0.4,0,0.6-0.3,0.6-0.6v-6.7c0-0.4-0.3-0.6-0.6-0.6c-0.4,0-0.6,0.3-0.6,0.6v6.7c0,0.2,0.1,0.3,0.2,0.5
		C5.4,18.9,5.6,19,5.7,19z"/>
	<path class="st0" d="M8.9,19c0.4,0,0.6-0.3,0.6-0.6v-6.7c0-0.4-0.3-0.6-0.6-0.6c-0.4,0-0.6,0.3-0.6,0.6v6.7C8.3,18.7,8.6,19,8.9,19
		z"/>
	<path class="st0" d="M12.1,19c0.4,0,0.6-0.3,0.6-0.6v-6.7c0-0.4-0.3-0.6-0.6-0.6c-0.4,0-0.6,0.3-0.6,0.6v6.7c0,0.2,0.1,0.3,0.2,0.5
		S11.9,19,12.1,19z"/>
</g>
</svg>
