<?xml version="1.0" encoding="utf-8"?>
<!-- Generator: Adobe Illustrator 23.0.3, SVG Export Plug-In . SVG Version: 6.00 Build 0)  -->
<svg version="1.1" id="Layer_1" xmlns="http://www.w3.org/2000/svg" xmlns:xlink="http://www.w3.org/1999/xlink" x="0px" y="0px"
	 viewBox="0 0 22 22" style="enable-background:new 0 0 22 22;" xml:space="preserve">
<style type="text/css">
	.st0{fill:#3f51b5;}
</style>
<g>
	<g>
		<g id="Pencil">
			<g>
				<path d="M16.3,5.7c-0.3-0.3-0.7-0.3-1,0l-6.9,6.9c-0.3,0.3-0.3,0.7,0,1c0.1,0.1,0.3,0.2,0.5,0.2c0.2,0,0.4-0.1,0.5-0.2l6.9-6.9
					C16.6,6.4,16.6,6,16.3,5.7z M16.3,5.7c-0.3-0.3-0.7-0.3-1,0l-6.9,6.9c-0.3,0.3-0.3,0.7,0,1c0.1,0.1,0.3,0.2,0.5,0.2
					c0.2,0,0.4-0.1,0.5-0.2l6.9-6.9C16.6,6.4,16.6,6,16.3,5.7z M20.8,1.2C20.1,0.4,19,0,18,0c-1.1,0-2.1,0.4-2.9,1.2L3,13.3
					c-0.1,0.1-0.1,0.2-0.2,0.3L0,21.1c-0.1,0.2,0,0.5,0.1,0.7C0.3,21.9,0.5,22,0.7,22c0.1,0,0.1,0,0.2,0l6.8-2.1
					c0.1,0,0.2-0.1,0.3-0.2L20.8,6.9C21.6,6.1,22,5.1,22,4C22,3,21.6,1.9,20.8,1.2z M6.9,18.7l-2.6,0.8C4.2,19,4,18.6,3.7,18.3
					c-0.3-0.3-0.6-0.5-0.9-0.7l1.2-3.2h1.6v1.4c0,0.4,0.3,0.7,0.7,0.7h1.2L6.9,18.7z M17.1,8.7l-8.4,8.4L8.9,16c0-0.2,0-0.4-0.1-0.6
					c-0.1-0.2-0.3-0.3-0.5-0.3H6.9v-1.4c0-0.4-0.3-0.7-0.7-0.7H5.1l8.2-8.1l0,0c0.5-0.5,1.2-0.8,1.9-0.8c0.7,0,1.4,0.3,1.9,0.8
					c0.5,0.5,0.8,1.2,0.8,1.9C17.8,7.5,17.6,8.2,17.1,8.7z M19.8,5.9l-0.6,0.6c-0.1-1-0.5-1.9-1.2-2.6c-0.7-0.7-1.6-1.1-2.6-1.2
					l0.6-0.6l0,0c0.5-0.5,1.2-0.8,1.9-0.8c0.7,0,1.4,0.3,1.9,0.8c0.5,0.5,0.8,1.2,0.8,1.9C20.6,4.8,20.3,5.4,19.8,5.9z M15.3,5.7
					l-6.9,6.9c-0.3,0.3-0.3,0.7,0,1c0.1,0.1,0.3,0.2,0.5,0.2c0.2,0,0.4-0.1,0.5-0.2l6.9-6.9c0.3-0.3,0.3-0.7,0-1
					C16,5.4,15.6,5.4,15.3,5.7z M16.3,5.7c-0.3-0.3-0.7-0.3-1,0l-6.9,6.9c-0.3,0.3-0.3,0.7,0,1c0.1,0.1,0.3,0.2,0.5,0.2
					c0.2,0,0.4-0.1,0.5-0.2l6.9-6.9C16.6,6.4,16.6,6,16.3,5.7z M16.3,5.7c-0.3-0.3-0.7-0.3-1,0l-6.9,6.9c-0.3,0.3-0.3,0.7,0,1
					c0.1,0.1,0.3,0.2,0.5,0.2c0.2,0,0.4-0.1,0.5-0.2l6.9-6.9C16.6,6.4,16.6,6,16.3,5.7z"/>
			</g>
		</g>
	</g>
	<path class="st0" d="M4.4,19.5l-2.7,1l1-2.8c0.3,0.2,0.7,0.4,0.9,0.7C4,18.6,4.2,19,4.4,19.5z"/>
	<path class="st0" d="M16.3,6.7l-6.9,6.9c-0.1,0.1-0.3,0.2-0.5,0.2c-0.2,0-0.4-0.1-0.5-0.2c-0.3-0.3-0.3-0.7,0-1l6.9-6.9
		c0.3-0.3,0.7-0.3,1,0C16.6,6,16.6,6.4,16.3,6.7z"/>
</g>
</svg>
